PathFileType	4	(X/Y/Z)	RBDS021\RBDS021runT45.trc
DataRate	CameraRate	NumFrames	NumMarkers	Units	OrigDataRate	OrigDataStartFrame	OrigNumFrames
150.000000	150.000000	5	33	mm	150.000000	1125	4500
Frame#	Time	L.ASIS			L.Heel.Bottom			L.Heel.Lateral			L.Heel.Top			L.Iliac.Crest			L.MT1			L.MT5			L.PSIS			L.Shank.Bottom.Lateral			L.Shank.Bottom.Medial			L.Shank.Top.Lateral			L.Shank.Top.Medial			L.Thigh.Bottom.Lateral			L.Thigh.Bottom.Medial			L.Thigh.Top.Lateral			L.Thigh.Top.Medial			R.ASIS			R.ASY			R.Heel.Bottom			R.Heel.Lateral			R.Heel.Top			R.Iliac.Crest			R.MT1			R.MT5			R.PSIS			R.Shank.Bottom.Lateral			R.Shank.Bottom.Medial			R.Shank.Top.Lateral			R.Shank.Top.Medial			R.Thigh.Bottom.Lateral			R.Thigh.Bottom.Medial			R.Thigh.Top.Lateral			R.Thigh.Top.Medial			
		X1	Y1	Z1	X2	Y2	Z2	X3	Y3	Z3	X4	Y4	Z4	X5	Y5	Z5	X6	Y6	Z6	X7	Y7	Z7	X8	Y8	Z8	X9	Y9	Z9	X10	Y10	Z10	X11	Y11	Z11	X12	Y12	Z12	X13	Y13	Z13	X14	Y14	Z14	X15	Y15	Z15	X16	Y16	Z16	X17	Y17	Z17	X18	Y18	Z18	X19	Y19	Z19	X20	Y20	Z20	X21	Y21	Z21	X22	Y22	Z22	X23	Y23	Z23	X24	Y24	Z24	X25	Y25	Z25	X26	Y26	Z26	X27	Y27	Z27	X28	Y28	Z28	X29	Y29	Z29	X30	Y30	Z30	X31	Y31	Z31	X32	Y32	Z32	X33	Y33	Z33	

1126	7.500000000000001	2169.641953432396	952.3882550738527	964.6263499244802	2169.68462558362	32.03292069324342	1124.535517809685	2179.775708524093	44.9070644765175	1070.01279382907	2177.792229287071	77.27737635218774	1113.415292494307	2100.879445136167	1032.490680177133	920.5009548746107	2386.301500844665	44.2120346281107	1080.592957253579	2313.04179431746	27.85938404692119	988.5804952251958	1999.774074923519	990.6389535601652	1053.855252345704	2218.754074130126	155.2281356770387	1012.587586387849	2189.492461502783	167.836917472288	1058.311913898118	2207.191423058147	229.9747599452633	985.6385214554784	2179.127119082549	242.7526019027184	1029.897605736365	2179.897639292413	601.9327702462465	911.7662562003221	2126.218564654713	587.6398187878207	956.3358108189111	2132.794637579024	699.7502087918057	890.7710853708295	2081.458403178952	685.7625495576839	933.1527682984498	2196.027095216518	945.5790069036638	1177.120018236614	1588.586712985085	439.9238188598905	1135.599991826444	1637.585660422099	584.9526260938446	1025.334641869426	1630.034233879673	585.1093803930852	1081.573167261549	1670.498509581882	564.9633529706039	1051.055853697979	2160.152233749604	1019.946628196703	1224.887782642479	1548.329908900488	399.6298037603736	1092.359065953107	1533.712790030043	483.6624430541731	1165.033542211914	2016.153572401788	988.4410480751426	1133.179571341162	1717.206971355224	535.6134597895212	1154.200220978529	1735.706980776016	550.532397137839	1108.62481711282	1795.133770394668	536.9419988419443	1186.702171034078	1809.424693839973	557.5254548398334	1140.202697613645	2042.09175494862	595.1228613023542	1254.863360330389	1987.451951575919	602.6132744986123	1206.599641516022	2048.180759149674	704.5592408506444	1259.932125448442	1996.401891189357	711.5870529919946	1213.891622715152	
1127	7.506666666666667	2165.713035901671	949.2707360613499	964.2182511802474	2140.311048288775	30.42646408523925	1126.814646246093	2150.599814071516	45.51115412719555	1072.757333543447	2149.347349339086	76.17836599356988	1117.566940716909	2097.669963924579	1027.477078470727	920.0524633821142	2357.438744594929	40.68621734196284	1083.367538188269	2283.197530763042	29.09761318783961	990.4394092950196	1996.599585712011	987.3251168829867	1055.146570076576	2196.579236214161	154.1208516069304	1016.012459875543	2166.621199436409	168.6121428708809	1060.636606163013	2189.335377583054	229.1390568797175	987.925179855705	2160.595866512825	243.7341956472368	1031.13314885473	2173.494749323718	599.1902525549278	911.9082251935935	2120.059575513258	585.519582979097	957.0412754221938	2126.991339631917	697.1662614149598	890.6739931983424	2075.763601915606	683.8843523398592	933.5442961201181	2193.683982631409	939.7822286631948	1175.619183962013	1608.37334898551	443.2670150417329	1137.910658779967	1657.789613427327	588.1498457387366	1027.407856977335	1651.218770370099	588.14460733474	1083.894032165062	1690.848534841217	567.4835388085426	1052.363267368457	2159.867271042473	1012.264240489366	1224.430000189376	1566.520156464218	403.7358589247327	1095.345927349655	1554.813935224711	487.5779569955658	1168.85889078529	2012.805731910795	983.6667482142944	1134.493040443645	1738.162381575831	535.6664352681776	1155.719364570105	1757.148091179571	550.4956623822534	1110.339568937864	1816.149339130482	534.2051202947371	1188.143148456754	1831.050035804969	554.7587180368095	1141.783693633026	2053.451609587142	587.2378279531125	1255.216364203725	1997.908962957556	591.9047116628476	1207.841874170641	2054.572038318461	696.8214739155666	1260.046028261587	2002.176292519065	701.165873017763	1214.603230257473	
1128	7.513333333333334	2161.456145706906	946.4837378204625	963.6653500131173	2110.55902254385	29.68175250234077	1128.12298402842	2121.140987032709	46.609460881994	1074.471227652822	2120.344256065809	75.82834681030343	1120.422303071245	2094.055063449031	1022.510763661261	919.6392165861006	2328.004345356685	38.52272265731575	1085.440709127826	2253.300642790475	30.72310579110373	991.7497920309319	1993.250499605536	984.7404680948962	1056.512324890838	2173.914191533495	153.8604706704962	1018.450489823572	2143.307517141419	170.155618259225	1061.933697425883	2171.00363014535	228.9989918542564	989.4501831849344	2141.608992176692	245.3308314301381	1031.566173731479	2166.748739836452	596.8075765179584	911.9319298405735	2113.483289672823	583.8083505481698	957.5215779033317	2121.079714797238	695.0484748612107	890.4705061029474	2069.887170907492	682.5012759499493	933.7045643690622	2190.891113543463	933.9523203958994	1174.021275757209	1629.321312126227	444.227071334898	1140.149355836128	1677.294665742889	590.372554315764	1030.959367270523	1671.895236821282	589.534609794228	1087.61246189018	1710.715935800847	569.1830261351623	1054.779120399184	2159.072837399643	1004.824373028509	1223.823527705844	1586.181574770798	405.5467634133034	1097.87078520723	1576.75588619599	488.0920702474527	1173.021857818261	2009.086687304487	979.6900426542467	1135.877663227633	1759.509899289132	534.6235709949993	1157.622162587213	1778.708214003971	549.6947050444422	1112.461905695497	1837.665539150894	530.7886268593146	1189.633153567057	1852.91314629065	551.5656973734511	1143.425350719379	2065.990048304778	580.27934468721	1255.416067356339	2009.392852874337	581.8656336338853	1209.333810767857	2061.698832509405	689.7363979064244	1260.147300271167	2008.543892078766	691.1196480250762	1215.678934927118	
1129	7.52	2157.046479555592	944.0790162521464	962.9741353199787	2080.58334252943	29.76332578371601	1128.549039357562	2091.502614832038	48.02697843794142	1075.204143784446	2090.948201557773	76.16830239600142	1121.971578784176	2090.117536243442	1017.812228011711	919.2907896852183	2298.169816251799	37.46339431291925	1086.713404615388	2223.407153614628	32.40274760160025	992.4680707381416	1989.832041824848	982.8984569665931	1057.898424065265	2150.724536204597	154.2500377803969	1019.845349495892	2119.572749495559	172.2631462640169	1062.201657688077	2152.081402914534	229.3505588435873	990.179982566915	2122.114101708912	247.3321178762988	1031.21797275847	2159.611582005566	594.7267398008114	911.8365561066272	2106.375896157879	582.4649078650641	957.6912210614206	2115.099774990968	693.3704139009262	890.1709350730885	2063.817081535358	681.6015557125271	933.5761951121643	2187.695273927176	928.2804958162625	1172.462891499747	1651.204424630335	442.7984701410741	1142.207202144428	1695.854090040361	591.5917920673108	1036.025121189858	1691.807648031216	589.2674928693993	1092.728449981174	1729.850244408817	570.0673602182397	1058.349892556826	2157.572464483723	997.9289812651049	1223.198745425179	1607.115324028214	405.0270548209706	1099.81086192796	1599.295821178328	485.1760210928954	1177.368674640383	2005.115738721689	976.5733323547515	1137.27294006134	1781.034454621753	532.589737827523	1159.905528508075	1800.141216207091	548.248448333705	1114.979272657154	1859.504651507463	526.887370464999	1191.142707611595	1874.79924506757	548.1618334960935	1145.103789147342	2079.667475573466	574.5439293923743	1255.415864257141	2021.993190991854	572.7864165147432	1210.907239913806	2069.547519780095	683.5386057416187	1260.192149658614	2015.58036150163	681.6790778404176	1217.00059473643	
1130	7.526666666666667	2152.679909051691	942.0687853649698	962.1823355389137	2050.478116115761	30.59694737068939	1128.235384576443	2061.738055509063	49.62196361731263	1075.075950363106	2061.281234141216	77.11927298396365	1122.317344362842	2085.986383420595	1013.610441952254	919.0271036475734	2268.055223547824	37.21706994624478	1087.189193721413	2193.518502031214	33.88479659394606	992.6167400883432	1986.450301928359	981.7683189851303	1059.219598549603	2126.9640073846	155.0990596446775	1020.243154752323	2095.41140701727	174.7413080365216	1061.533739030489	2132.455012205525	230.0016985558069	990.1551102178283	2102.046662801035	249.5445158572147	1030.176050174649	2152.034110783697	592.8729149415402	911.6193133662903	2098.63587123009	581.431407140082	957.4812286739013	2109.070714694357	692.0757613960176	889.7851092506623	2057.532852751496	681.1469937199907	933.1209890912377	2184.166031011418	922.9772330929604	1171.093340875573	1673.822351445021	439.0271525566154	1143.999482792708	1713.28708008388	591.6705090025955	1042.528532993248	1710.768931774085	587.2873589811777	1099.134402926826	1748.056237995801	570.0504832000407	1063.043156036854	2155.204458887377	991.8629869169279	1222.698780716513	1629.1435811594	402.1700727652496	1101.111353204447	1622.252700657832	478.9032945398416	1181.739947419232	2001.017943100283	974.3330780712082	1138.588281516157	1802.528525716633	529.6576892382957	1162.540075884039	1821.216007906326	546.2353588101699	1117.850539166941	1881.474949282345	522.6955856589951	1192.639799186112	1896.481844587463	544.7384634270003	1146.792808136993	2094.361990501601	570.3083116473982	1255.168933489938	2035.725436028245	564.961555486885	1212.378428456307	2078.051991990363	678.4470741437171	1260.137168770668	2023.319860936392	673.0828678829183	1218.434979352312	
